<?xml version="1.0" standalone="no"?><!DOCTYPE svg PUBLIC "-//W3C//DTD SVG 1.1//EN" "http://www.w3.org/Graphics/SVG/1.1/DTD/svg11.dtd"><svg t="1556163059979" class="icon" style="" viewBox="0 0 1177 1024" version="1.1" xmlns="http://www.w3.org/2000/svg" p-id="5973" xmlns:xlink="http://www.w3.org/1999/xlink" width="229.8828125" height="200"><defs><style type="text/css"></style></defs><path d="M331.8784 0h529.664a51.2 51.2 0 0 1 44.3648 25.6l264.832 458.7264a51.2 51.2 0 0 1 0 51.2L905.9072 994.2272a51.2 51.2 0 0 1-44.3392 25.6h-529.664a51.2 51.2 0 0 1-44.3648-25.6L22.7072 535.552a51.2 51.2 0 0 1 0-51.2L287.5392 25.6a51.2 51.2 0 0 1 44.3392-25.6z m493.2608 51.2H359.3216a51.2 51.2 0 0 0-44.4928 25.856l-233.344 409.6a51.2 51.2 0 0 0 0 50.688l233.344 409.6A51.2 51.2 0 0 0 359.3216 972.8h465.8176a51.2 51.2 0 0 0 44.4672-25.856l233.3696-409.6a51.2 51.2 0 0 0 0-50.688l-233.3696-409.6A51.2 51.2 0 0 0 825.1392 51.2zM107.0592 486.656l218.7776-384A51.2 51.2 0 0 1 370.3296 76.8H806.4a51.2 51.2 0 0 1 44.4672 25.856l218.7776 384a51.2 51.2 0 0 1 0 50.688l-218.7776 384A51.2 51.2 0 0 1 806.4 947.2H370.3296a51.2 51.2 0 0 1-44.4928-25.856l-218.752-384a51.2 51.2 0 0 1 0-50.688zM334.336 588.8v-32h-64V524.8h64v-32h-64V460.8h64v-32H238.336V588.8h96z m160 0v-32h-32V524.8h32V460.8h-32v63.744h-64v-64h64v-31.744h-96V588.8h32v-32h64V588.8h32z m160 0v-32h-32V524.8h32V460.8h-32v63.744h-64v-64h64v-31.744h-96V588.8h32v-32h64V588.8h32z m128-32.256h-64v-95.488h64v95.488z m-64 0.256V588.8h64v-32h32V460.8h-32v-32h-64V460.8h-32v96h32z m256 32v-32h-32V524.8h32V460.8h-32v63.744h-64v-64h64v-31.744h-96V588.8h32v-32h64V588.8h32z" p-id="5974"></path></svg>