<?xml version="1.0" standalone="no"?><!DOCTYPE svg PUBLIC "-//W3C//DTD SVG 1.1//EN" "http://www.w3.org/Graphics/SVG/1.1/DTD/svg11.dtd"><svg t="1534477922293" class="icon" style="" viewBox="0 0 1024 1024" version="1.1" xmlns="http://www.w3.org/2000/svg" p-id="3142" xmlns:xlink="http://www.w3.org/1999/xlink" width="200" height="200"><defs><style type="text/css"></style></defs><path d="M638.016 96.992H266.016q-28 0-47.488 19.008T199.04 162.016v702.016q0 26.016 19.488 44.992t47.488 19.008h492q28 0 47.488-19.008t19.488-44.992V307.04z m-23.008 268h147.008v498.016q-0.992 2.016-4 2.016H266.016q-3.008 0-4-2.016V162.016Q263.008 160 266.016 160h291.008v148q0 23.008 16.992 40t40.992 16.992z m5.984-62.976V173.024L736 302.016h-115.008z m-288 104q-12 0-20.992 8.512t-8.992 20.992 8.992 20.992 20.992 8.512h204.992q12 0 20.512-8.512t8.512-20.992-8.512-20.992-20.512-8.512h-204.992z m-29.984 183.488q0 12.512 8.992 20.992t20.992 8.512h359.008q12 0 20.512-8.512t8.512-20.992-8.512-20.992-20.512-8.512H332.992q-12 0-20.992 8.512t-8.992 20.992z m235.008 123.488h-204.992q-12 0-20.992 8.992t-8.992 20.992 8.992 20.992 20.992 8.992h204.992q12 0 20.512-8.992t8.512-20.992-8.512-20.992-20.512-8.992z" p-id="3143"></path></svg>