<?xml version="1.0" standalone="no"?><!DOCTYPE svg PUBLIC "-//W3C//DTD SVG 1.1//EN" "http://www.w3.org/Graphics/SVG/1.1/DTD/svg11.dtd"><svg t="1534477665371" class="icon" style="" viewBox="0 0 1024 1024" version="1.1" xmlns="http://www.w3.org/2000/svg" p-id="2912" xmlns:xlink="http://www.w3.org/1999/xlink" width="200" height="200"><defs><style type="text/css"></style></defs><path d="M918.016 448q-11.008-12.992-27.008-15.008v-86.016q0-24.992-18.016-43.008t-43.008-18.016H490.976q-2.016-0.992-2.016-2.016l-14.016-56q-4.992-23.008-24.512-38.016t-42.496-15.008H156.928q-24.992 0-43.008 18.016t-18.016 43.008v554.016q0 20.992 12.992 38.016l3.008 3.008q18.016 20 44.992 20h247.488l82.016 0.512 81.504 0.512q159.008 0 232-0.992 20 0 36.512-13.504t20.512-33.504l34.016-156 35.008-164q4.992-20-8-36z m-33.024-8.992zM427.008 300h0.992q4.992 20.992 22.016 34.016 19.008 15.008 40 15.008h338.016v84H230.016q-15.008 0-27.008 8.992t-15.008 24l-28.992 134.016V238.016h248.992q0.992 0 4 2.016l2.016 2.016z m432 196l-31.008 144-32 148H183.008L246.016 496h612.992z" p-id="2913"></path></svg>