<?xml version="1.0" standalone="no"?><!DOCTYPE svg PUBLIC "-//W3C//DTD SVG 1.1//EN" "http://www.w3.org/Graphics/SVG/1.1/DTD/svg11.dtd"><svg t="1556161491385" class="icon" style="" viewBox="0 0 1024 1024" version="1.1" xmlns="http://www.w3.org/2000/svg" p-id="1547" xmlns:xlink="http://www.w3.org/1999/xlink" width="200" height="200"><defs><style type="text/css"></style></defs><path d="M774.171 744.516c37.646-26.452 62.313-70.13 62.313-119.634 0-80.753-65.461-146.212-146.214-146.212-80.752 0-146.212 65.459-146.212 146.212 0 49.504 24.666 93.182 62.312 119.634-75.348 32.513-128.107 107.446-128.107 194.724 0 7.404 0.385 14.722 1.128 21.932h421.76a213.918 213.918 0 0 0 1.128-21.932c-0.001-87.279-52.76-162.213-128.108-194.724z" fill="#cf451a" p-id="1548"></path><path d="M364.947 295.904c-26.244 0-47.519 21.275-47.519 47.519s21.275 47.519 47.519 47.519c26.245 0 47.519-21.274 47.519-47.519 0-26.244-21.275-47.519-47.519-47.519zM478.262 61.963c-213.994 0-387.464 173.471-387.464 387.463 0 211.829 169.98 383.944 380.985 387.404 18.813-40.05 48.317-74.084 84.832-98.435-26.022-30.605-41.801-70.193-41.801-113.515 0-96.9 78.555-175.455 175.455-175.455 72.021 0 133.895 43.398 160.927 105.465 9.463-33.53 14.529-68.906 14.529-105.465 0.001-213.99-173.47-387.462-387.463-387.462zM364.947 654.125c-50.468 0-91.382-40.915-91.382-91.383s40.915-91.383 91.382-91.383 91.383 40.916 91.383 91.383-40.915 91.383-91.383 91.383z m0-219.319c-50.468 0-91.382-40.916-91.382-91.383s40.915-91.383 91.382-91.383 91.383 40.915 91.383 91.383-40.915 91.383-91.383 91.383z m219.32 0c-50.468 0-91.384-40.916-91.384-91.383s40.916-91.383 91.384-91.383 91.382 40.915 91.382 91.383-40.915 91.383-91.382 91.383z m0-138.902c-26.245 0-47.519 21.275-47.519 47.519s21.273 47.519 47.519 47.519c26.243 0 47.519-21.274 47.519-47.519-0.001-26.244-21.276-47.519-47.519-47.519z" fill="#d06746" p-id="1549"></path></svg>